<?xml version="1.0" encoding="iso-8859-1"?>
<!-- Generator: Adobe Illustrator 19.0.0, SVG Export Plug-In . SVG Version: 6.00 Build 0)  -->
<svg version="1.1" id="Capa_1" xmlns="http://www.w3.org/2000/svg" xmlns:xlink="http://www.w3.org/1999/xlink" x="0px" y="0px"
	 viewBox="0 0 512 512" style="enable-background:new 0 0 512 512;" xml:space="preserve">
<path style="fill:#FFEFD5;" d="M255.874,9.999L255.874,9.999c-20.985,0-37.996,17.011-37.996,37.996v7.999
	c0,20.985,17.011,37.996,37.996,37.996l0,0c20.985,0,37.996-17.011,37.996-37.996v-7.999C293.87,27.01,276.859,9.999,255.874,9.999z
	"/>
<ellipse style="fill:#C9F3FF;" cx="256.002" cy="397.485" rx="245.972" ry="104.518"/>
<ellipse style="fill:#7D9BFF;" cx="256.002" cy="397.485" rx="141.854" ry="47.245"/>
<path style="fill:#A0E557;" d="M216.072,246.252L216.072,246.252h-35.189v-91.636c0-20.676,14.883-38.35,35.258-41.868l9.558-1.651
	c8.767-1.514,15.171-9.119,15.171-18.016l0,0h30.007l0,0c0,8.897,6.404,16.502,15.171,18.016l9.56,1.651
	c20.375,3.519,35.258,21.193,35.258,41.868v91.636h-35.183l0,0H216.072z"/>
<rect x="213.877" y="229.974" style="fill:#C9F3FF;" width="83.978" height="168.141"/>
<path d="M409.592,468.545c-42.929,15.126-97.475,23.457-153.591,23.457c-64.389,0-124.769-10.589-170.018-29.816
	c-41.916-17.811-65.956-41.393-65.956-64.703c0-19.519,16.836-39.348,47.407-55.834c32.302-17.418,78.046-30.034,128.708-35.511
	l7.747-0.76v92.73c0,5.521,4.477,9.999,9.999,9.999h83.978c5.521,0,9.999-4.477,9.999-9.999v-34.523
	c52.306,7.031,79.993,23.353,79.993,33.896c0,5.702-9.091,15.388-34.71,23.92c-25.801,8.594-60.302,13.325-97.148,13.325
	s-71.347-4.731-97.148-13.325c-25.619-8.532-34.71-18.218-34.71-23.92c0-6.322,10.329-15.547,33.083-23.372
	c-1.751,4.732,0.314,10.12,4.934,12.414c1.429,0.709,2.945,1.045,4.438,1.045c3.679,0,7.218-2.038,8.964-5.555l10.777-21.713
	c2.456-4.946,0.436-10.947-4.51-13.401l-21.713-10.777c-4.947-2.456-10.947-0.436-13.401,4.51
	c-2.456,4.946-0.436,10.947,4.51,13.401l1.2,0.596c-31.238,10.448-48.281,25.474-48.281,42.853
	c0,37.581,76.392,57.243,151.856,57.243s151.856-19.663,151.856-57.243c0-30.622-50.406-47.631-99.991-54.042v-87.191h22.999
	c5.521,0,9.999-4.477,9.999-9.999v-91.636c0-25.611-18.317-47.363-43.556-51.722l-9.56-1.65c-2.795-0.482-5.047-2.319-6.145-4.767
	c13.371-8.528,22.264-23.482,22.264-40.483v-7.999C303.867,21.53,282.337,0,255.872,0s-47.995,21.53-47.995,47.995v7.999
	c0,17.001,8.893,31.954,22.263,40.482c-1.098,2.449-3.351,4.286-6.145,4.768l-9.558,1.65c-25.238,4.359-43.556,26.11-43.556,51.722
	v91.636c0,5.521,4.477,9.999,9.999,9.999h23.007v29.036l-9.799,0.961c-53.271,5.759-101.623,19.185-136.148,37.802
	c-37.888,20.432-57.913,45.825-57.913,73.435c0,32.184,27.748,61.698,78.132,83.108C125.827,500.845,188.985,512,255.999,512
	c58.321,0,115.228-8.734,160.237-24.594c5.208-1.836,7.942-7.545,6.107-12.754C420.509,469.443,414.796,466.706,409.592,468.545z
	 M287.868,388.111h-63.981V239.973h21.991v85.657c0,5.521,4.477,9.999,9.999,9.999c5.521,0,9.999-4.477,9.999-9.999v-85.657h21.993
	v101.556c-4.863,0.344-8.863,4.182-9.254,9.182c-0.431,5.505,3.684,10.318,9.188,10.749c0.022,0.002,0.043,0.004,0.065,0.006v26.645
	H287.868z M227.877,47.995c0-15.437,12.56-27.997,27.997-27.997s27.997,12.56,27.997,27.997v7.999
	c0,15.437-12.56,27.997-27.997,27.997s-27.997-12.56-27.997-27.997L227.877,47.995L227.877,47.995z M190.881,236.252v-81.637
	c0-15.853,11.339-29.318,26.96-32.015l9.559-1.65c9.995-1.727,17.97-8.519,21.498-17.476c2.279,0.333,4.606,0.513,6.976,0.513
	c2.369,0,4.696-0.179,6.975-0.513c3.528,8.956,11.503,15.749,21.498,17.476l9.561,1.65c15.621,2.697,26.96,16.161,26.96,32.015
	v81.637h-13.002V173.87c0-5.521-4.478-9.999-9.999-9.999c-5.521,0-9.999,4.477-9.999,9.999v46.105h-63.981v-46.104
	c0-5.521-4.477-9.999-9.999-9.999s-9.999,4.477-9.999,9.999v62.382L190.881,236.252L190.881,236.252z"/>
<path d="M442.231,454.556l-0.126,0.065c-4.916,2.516-6.862,8.539-4.348,13.456c1.77,3.459,5.274,5.446,8.909,5.446
	c1.533,0,3.089-0.354,4.547-1.1c0.021-0.011,0.116-0.06,0.149-0.077c4.898-2.522,6.835-8.535,4.324-13.443
	C453.17,453.987,447.144,452.042,442.231,454.556z"/>
<path d="M382.653,297.554l0.339-0.218c4.643-2.99,5.982-9.178,2.994-13.82c-2.99-4.643-9.176-5.983-13.82-2.994l-20.381,13.122
	c-4.642,2.99-5.982,9.177-2.994,13.819l13.121,20.381c1.912,2.97,5.13,4.587,8.417,4.587c1.854,0,3.729-0.515,5.402-1.593
	c4.579-2.949,5.937-9.004,3.107-13.624c31.734,7.984,58.631,18.936,78.551,32.065c15.777,10.4,34.585,27.205,34.585,48.203
	c0,13.121-7.276,26.065-21.627,38.474c-4.178,3.612-4.635,9.927-1.023,14.103c1.978,2.287,4.765,3.459,7.567,3.459
	c2.317,0,4.645-0.801,6.536-2.436c18.674-16.146,28.544-34.682,28.544-53.6C511.972,354.98,462.941,317.515,382.653,297.554z"/>
<path d="M255.874,350.96c-2.63,0-5.209,1.06-7.069,2.92c-1.86,1.87-2.93,4.439-2.93,7.069c0,2.64,1.069,5.209,2.93,7.068
	c1.86,1.87,4.439,2.931,7.069,2.931c2.64,0,5.209-1.061,7.068-2.931c1.87-1.859,2.931-4.43,2.931-7.068
	c0-2.631-1.061-5.199-2.931-7.069C261.083,352.02,258.504,350.96,255.874,350.96z"/>
<g>
</g>
<g>
</g>
<g>
</g>
<g>
</g>
<g>
</g>
<g>
</g>
<g>
</g>
<g>
</g>
<g>
</g>
<g>
</g>
<g>
</g>
<g>
</g>
<g>
</g>
<g>
</g>
<g>
</g>
</svg>
